<svg xmlns="http://www.w3.org/2000/svg" xmlns:xlink="http://www.w3.org/1999/xlink" version="1.1" width="256" height="256" viewBox="0 0 256 256" xml:space="preserve">
<g style="stroke: none; stroke-width: 0; stroke-dasharray: none; stroke-linecap: butt; stroke-linejoin: miter; stroke-miterlimit: 10; fill: none; fill-rule: nonzero; opacity: 1;" transform="translate(1.4065934065934016 1.4065934065934016) scale(2.81 2.81)">
	<circle cx="45" cy="45" r="45" style="stroke: none; stroke-width: 1; stroke-dasharray: none; stroke-linecap: butt; stroke-linejoin: miter; stroke-miterlimit: 10; fill: rgb(230,62,50); fill-rule: nonzero; opacity: 1;" transform="  matrix(1 0 0 1 0 0) "/>
	<path d="M 45 71 c -14.336 0 -26 -11.663 -26 -26 c 0 -14.336 11.664 -26 26 -26 c 14.337 0 26 11.664 26 26 C 71 59.337 59.337 71 45 71 z M 45 23 c -12.131 0 -22 9.869 -22 22 s 9.869 22 22 22 s 22 -9.869 22 -22 S 57.131 23 45 23 z" style="stroke: none; stroke-width: 1; stroke-dasharray: none; stroke-linecap: butt; stroke-linejoin: miter; stroke-miterlimit: 10; fill: rgb(255,255,255); fill-rule: nonzero; opacity: 1;" transform=" matrix(1 0 0 1 0 0) " stroke-linecap="round"/>
	<path d="M 53.604 55.562 c -0.51 0 -1.021 -0.194 -1.411 -0.582 l -8.604 -8.562 C 43.212 46.042 43 45.532 43 45 V 33.595 c 0 -1.104 0.896 -2 2 -2 s 2 0.896 2 2 v 10.573 l 8.016 7.975 c 0.782 0.779 0.786 2.046 0.007 2.829 C 54.632 55.365 54.118 55.562 53.604 55.562 z" style="stroke: none; stroke-width: 1; stroke-dasharray: none; stroke-linecap: butt; stroke-linejoin: miter; stroke-miterlimit: 10; fill: rgb(255,255,255); fill-rule: nonzero; opacity: 1;" transform=" matrix(1 0 0 1 0 0) " stroke-linecap="round"/>
</g>
</svg>